# xmcd CD database file
#
# Track frame offsets:
#	150
#	9450
#	17250
#	29547
#	47128
#	60141
#	72454
#	89708
#	97748
#	110854
#	125091
#	139868
#	154764
#	167800
#	181984
#	204388
#	221659
#	232174
#	247290
#	263899
#	281536
#
# Disc length: 3941 seconds
#
# Revision: 0
# Processed by: cddbd v1.5.2PL0 Copyright (c) Steve Scherf et al.
# Submitted via: CDex 1.51
#
DISCID=360f6315
DTITLE=Adam Franklin - Outside Man
DYEAR=2015
DGENRE=Blues
TTITLE0=I`m Walkin
TTITLE1=Jumpin' At Shadows
TTITLE2=Never Drive A Stranger From Your Door
TTITLE3=Catman Blues
TTITLE4=Tuckin' With My Baby ( On A Friday Night )
TTITLE5=Teaching Rag - I`m Gonna Get High
TTITLE6=Terraplane Blues
TTITLE7=Crazy, Crazy Baby
TTITLE8=Outside Man
TTITLE9=You Can`t Get That Stuff No More
TTITLE10=Jazz Hole Boogie
TTITLE11=Tell Me Mama
TTITLE12=Walkin' My Troubles Away
TTITLE13=Jacke Nunn
TTITLE14=Summertime - St. James Infirmary
TTITLE15=Steve`s Train
TTITLE16=I Want You To Know
TTITLE17=Dr. Jazz
TTITLE18=Preachin' Blues
TTITLE19=Cross Your Heart
TTITLE20=Love In Vain
EXTD=YEAR: 2015
EXTT0=
EXTT1=
EXTT2=
EXTT3=
EXTT4=
EXTT5=
EXTT6=
EXTT7=
EXTT8=
EXTT9=
EXTT10=
EXTT11=
EXTT12=
EXTT13=
EXTT14=
EXTT15=
EXTT16=
EXTT17=
EXTT18=
EXTT19=
EXTT20=
PLAYORDER=
